<?xml version="1.0" standalone="no"?>
<!DOCTYPE svg PUBLIC "-//W3C//DTD SVG 1.1//EN" "http://www.w3.org/Graphics/SVG/1.1/DTD/svg11.dtd" >
<svg>
<metadata>
Created by FontForge 20120731 at Thu Mar 24 17:02:30 2016
 By ,,,
Copyright (c) 2015 by villa, Tobias Weber. All rights reserved. Bonn is free to download and not for sale. Bonn is free to use for non commercial projects. For a commercial use please contact: tw@welcome-to-villa.com
</metadata>
<defs>
<font id="BonnLightBeta" horiz-adv-x="320" >
  <font-face 
    font-family="Bonn Light Beta"
    font-weight="300"
    font-stretch="normal"
    units-per-em="1000"
    panose-1="0 0 0 0 0 0 0 0 0 0"
    ascent="750"
    descent="-250"
    x-height="542"
    cap-height="776"
    bbox="-60 -252 758 908"
    underline-thickness="50"
    underline-position="-50"
    unicode-range="U+0020-FB02"
  />
<missing-glyph horiz-adv-x="120" 
 />
    <glyph glyph-name=".notdef" horiz-adv-x="120" 
 />
    <glyph glyph-name="E" unicode="E" 
d="M42 0v776h245v-40h-205v-287h205v-40h-205v-369h205v-40h-245z" />
    <glyph glyph-name="B" unicode="B" 
d="M287 531q0 -26 -14 -52.5t-38 -50.5q24 -24 38 -50t14 -52v-204q0 -25 -9.5 -47.5t-26.5 -39t-39.5 -26t-47.5 -9.5h-122v776h123q25 0 47.5 -10t39 -26.5t26 -38.5t9.5 -47v-123zM82 409v-370h81q37 0 60.5 24.5t23.5 58.5v204q0 32 -23.5 56.5t-58.5 26.5h-83zM82 737
v-289h87q35 2 56.5 26.5t21.5 56.5v123q0 32 -23.5 56.5t-58.5 26.5h-83z" />
    <glyph glyph-name="C" unicode="C" 
d="M164 0q-25 0 -47.5 9.5t-39 26t-26 39t-9.5 47.5v533q0 25 9.5 47t26 38.5t39 26t47.5 9.5t47.5 -9.5t39.5 -26t26.5 -38.5t9.5 -47v-78h-40v78q0 34 -24 58t-59 24q-34 0 -58 -24t-24 -58v-533q0 -34 24 -58t58 -24q35 0 59 24t24 58v90h40v-90q0 -25 -9.5 -47.5
t-26.5 -39t-39.5 -26t-47.5 -9.5z" />
    <glyph glyph-name="D" unicode="D" 
d="M287 122q0 -25 -9.5 -47.5t-26.5 -39t-39.5 -26t-47.5 -9.5h-122v776h123q25 0 47.5 -10t39 -26.5t26 -38.5t9.5 -47v-532zM82 737v-698h81q37 0 60.5 24.5t23.5 58.5v532q0 32 -23.5 56.5t-58.5 26.5h-83z" />
    <glyph glyph-name="F" unicode="F" 
d="M82 0h-40v776h245v-40h-205v-287h205v-40h-205v-409z" />
    <glyph glyph-name="G" unicode="G" 
d="M164 0q-25 0 -47.5 9.5t-39 26t-26 39t-9.5 47.5v532q0 25 9.5 47.5t26 39t39 26t47.5 9.5t47.5 -9.5t39.5 -26t26.5 -39t9.5 -47.5v-81h-40v81q0 34 -24 58t-59 24t-59 -24t-24 -58v-532q0 -34 24 -58.5t59 -24.5t59 24.5t24 58.5v287h-83v40h123v-327q0 -25 -9.5 -47.5
t-26.5 -39t-39.5 -26t-47.5 -9.5z" />
    <glyph glyph-name="H" unicode="H" 
d="M82 -1h-40v777h40v-328h165v328h40v-777h-40v409h-165v-409z" />
    <glyph glyph-name="I" unicode="I" horiz-adv-x="126" 
d="M85 0h-40v776h40v-776z" />
    <glyph glyph-name="Z" unicode="Z" 
d="M287 0h-245v57l213 680h-213v39h245v-57l-212 -680h212v-39z" />
    <glyph glyph-name="J" unicode="J" horiz-adv-x="173" 
d="M-53 -82q26 3 48 15.5t38.5 31t26 43t9.5 52.5v716h40v-716q0 -36 -12 -68.5t-34 -57t-51.5 -39.5t-64.5 -18v41z" />
    <glyph glyph-name="K" unicode="K" 
d="M82 429v-429h-40v777h40v-311l157 311h34l-159 -319l164 -458h-37z" />
    <glyph glyph-name="L" unicode="L" horiz-adv-x="319" 
d="M42 0v776h39v-736h205v-40h-244z" />
    <glyph glyph-name="M" unicode="M" horiz-adv-x="499" 
d="M80 0h-40v776h71l149 -722l143 722h70v-776h-40v730l-154 -730h-46l-153 730v-730z" />
    <glyph glyph-name="N" unicode="N" horiz-adv-x="319" 
d="M81 0h-39v776h69l136 -670v670h39v-776h-51l-154 737v-737z" />
    <glyph glyph-name="O" unicode="O" 
d="M164 0q-25 0 -47.5 9.5t-39 26t-26 39t-9.5 47.5v533q0 25 9.5 47t26 38.5t39 26t47.5 9.5t47.5 -9.5t39.5 -26t26.5 -38.5t9.5 -47v-533q0 -25 -9.5 -47.5t-26.5 -39t-39.5 -26t-47.5 -9.5zM82 122q0 -34 24 -58t58 -24q35 0 59 24t24 58v533q0 34 -24 58t-59 24
q-34 0 -58 -24t-24 -58v-533z" />
    <glyph glyph-name="P" unicode="P" 
d="M287 531q0 -25 -9.5 -47.5t-26.5 -39t-39.5 -26t-47.5 -9.5h-82v-409h-40v776h123q25 0 47.5 -10t39 -26.5t26 -38.5t9.5 -47v-123zM82 737v-289h81q37 0 60.5 24.5t23.5 58.5v123q0 32 -23.5 56.5t-58.5 26.5h-83z" />
    <glyph glyph-name="Q" unicode="Q" horiz-adv-x="322" 
d="M197 0q8 -20 21 -34.5t28 -24.5t31 -16t30 -8v-39q-49 5 -87.5 37.5t-61.5 83.5q-23 3 -44 13t-37 25.5t-25.5 35.5t-9.5 43v536q0 26 10 48.5t27 39.5t40 26.5t49 9.5q22 0 43 -9.5t37.5 -26.5t26 -39.5t9.5 -48.5v-536q0 -37 -19 -66t-50 -44zM81 116q0 -17 7.5 -32.5
t19.5 -27t27.5 -18t32.5 -6.5q33 0 55 24.5t22 59.5v536q0 38 -22 62t-55 24q-17 0 -32.5 -6.5t-27.5 -18t-19.5 -27t-7.5 -34.5v-536z" />
    <glyph glyph-name="R" unicode="R" 
d="M287 531q0 -26 -14 -53t-40 -51q25 -23 39.5 -49t14.5 -52v-326h-40v326q0 33 -24 57.5t-59 25.5h-82v-409h-40v776h123q25 0 47.5 -10t39 -26.5t26 -38.5t9.5 -47v-123zM82 737v-289h82q38 2 60.5 26t22.5 57v123q0 32 -23.5 56.5t-58.5 26.5h-83z" />
    <glyph glyph-name="S" unicode="S" 
d="M246 324q0 35 -25 60t-60 25q-25 0 -47 9.5t-38 26t-25.5 39t-9.5 47.5v123q0 25 9.5 47.5t26 39t39 26t47.5 9.5t47.5 -9.5t39.5 -26t26.5 -39t9.5 -47.5v-111h-40v111q0 34 -23.5 58.5t-60.5 24.5q-36 0 -59 -24.5t-23 -58.5v-124q0 -18 6.5 -33.5t18 -27t27 -18
t32.5 -6.5q25 0 47.5 -9.5t39 -26t26 -39t9.5 -47.5v-201q0 -25 -9.5 -47.5t-26.5 -39t-39.5 -26t-47.5 -9.5t-47.5 9.5t-39 26t-26 39t-9.5 47.5v111h39v-111q0 -34 24.5 -58.5t58.5 -24.5q35 0 59 24.5t24 58.5v202z" />
    <glyph glyph-name="T" unicode="T" 
d="M140 737h-116v39h272v-39h-117v-737h-39v737z" />
    <glyph glyph-name="U" unicode="U" 
d="M164 0q-25 0 -47 9.5t-38.5 26t-26.5 38.5t-10 47v655h40v-654q0 -34 23 -58t59 -24q37 0 60.5 24t23.5 58v654h39v-655q0 -25 -9.5 -47t-26.5 -38.5t-39.5 -26t-47.5 -9.5z" />
    <glyph glyph-name="V" unicode="V" 
d="M285 776q-25 -197 -49.5 -387.5t-49.5 -388.5h-44l-98 776h39l81 -635l80 635h41z" />
    <glyph glyph-name="W" unicode="W" horiz-adv-x="514" 
d="M486 776l-98 -776h-44l-81 638q-7 -59 -17.5 -143.5t-22 -175t-22 -175.5t-17.5 -144h-44q-25 198 -49.5 388.5t-48.5 387.5h39l81 -639l80 639h44l79 -638l81 638h40z" />
    <glyph glyph-name="X" unicode="X" 
d="M47 0l97 388l-97 388h39l79 -318l77 318h39l-97 -388l97 -388h-39l-77 306l-79 -306h-39z" />
    <glyph glyph-name="Y" unicode="Y" 
d="M47 0l97 388l-97 388h38l81 -317q7 29 17 71t21 87t21 87.5t17 71.5h38q-25 -100 -49 -196.5t-48 -192t-48 -192t-49 -195.5h-39z" />
    <glyph glyph-name="space" unicode=" " horiz-adv-x="120" 
 />
    <glyph glyph-name="a" unicode="a" horiz-adv-x="319" 
d="M168 302q14 0 24 -2t19.5 -6t19.5 -9.5t25 -12.5v142q0 36 -25.5 61.5t-61.5 25.5q-37 0 -62.5 -25.5t-25.5 -61.5h-41v4q1 25 11.5 48t27.5 40t40.5 27t49.5 10q25 0 48 -10t40.5 -27t28 -40t11.5 -48v-418h-41v26q-26 -12 -49 -19t-39 -7q-27 0 -50.5 10t-41 27.5
t-27.5 41t-10 50.5v45q0 27 10 50t27.5 40.5t41 27.5t50.5 10zM255 174q0 36 -25.5 61.5t-61.5 25.5t-61.5 -25.5t-25.5 -61.5v-45q0 -37 25.5 -62.5t61.5 -25.5t61.5 25.5t25.5 62.5v45z" />
    <glyph glyph-name="b" unicode="b" 
d="M82 -1h-42v777h42v-260q13 6 22.5 11.5t18 9t19 5.5t27.5 2q27 0 50.5 -10t41.5 -27.5t28 -41t10 -50.5v-287q0 -27 -10 -50.5t-28 -41t-41.5 -27.5t-50.5 -10q-32 0 -87 30v-30zM82 128q0 -36 25.5 -61.5t61.5 -25.5t61.5 25.5t25.5 61.5v287q0 36 -25.5 61.5
t-61.5 25.5t-61.5 -25.5t-25.5 -61.5v-287z" />
    <glyph glyph-name="c" unicode="c" 
d="M40 414q0 27 10 50.5t27.5 41t41 27.5t50.5 10q24 0 45.5 -8.5t38 -22.5t28 -34t15.5 -42h-42q-8 27 -32 46t-53 19q-36 0 -62 -25.5t-26 -61.5v-284q0 -18 7 -33.5t19 -27.5t28 -19t34 -7q29 0 53 19t32 46h42q-4 -23 -15.5 -42.5t-28 -33.5t-38 -22.5t-45.5 -8.5
q-27 0 -50.5 10t-41 27.5t-27.5 41t-10 50.5v284z" />
    <glyph glyph-name="d" unicode="d" 
d="M257 775h42v-775h-42v29q-56 -29 -88 -29q-27 0 -50.5 10t-41 27.5t-27.5 41t-10 50.5v285q0 27 10 50.5t27.5 41t41 27.5t50.5 10q29 0 45.5 -7t42.5 -19v258zM257 414q0 36 -25.5 61.5t-62.5 25.5q-36 0 -61.5 -25.5t-25.5 -61.5v-285q0 -36 25.5 -61.5t61.5 -25.5
t62 25.5t26 61.5v285z" />
    <glyph glyph-name="e" unicode="e" 
d="M169 543q27 0 50.5 -10t41 -27.5t27.5 -41t10 -50.5v-156h-216v-131q0 -36 25.5 -61.5t61.5 -25.5t61.5 25.5t25.5 61.5h42v-3q-1 -26 -11.5 -49t-27.5 -40t-40.5 -27t-49.5 -10q-27 0 -50.5 10t-41.5 27.5t-28 41t-10 50.5v287q0 27 10 50.5t28 41t41.5 27.5t50.5 10z
M256 300v114q0 36 -25.5 61.5t-61.5 25.5t-61.5 -25.5t-25.5 -61.5v-114h174z" />
    <glyph glyph-name="f" unicode="f" horiz-adv-x="230" 
d="M220 733q-36 0 -61.5 -25.5t-25.5 -61.5v-126h95v-42h-95v-478h-42v478h-95v42h95v126q0 27 10 50.5t27.5 41.5t41 28t50.5 10h8v-43h-8v0z" />
    <glyph glyph-name="g" unicode="g" 
d="M299 -22q0 -40 -15.5 -75.5t-41.5 -61.5t-61.5 -41.5t-75.5 -15.5h-65v42h65q31 0 58.5 12t48 32.5t32.5 48t12 59.5v52q-56 -30 -87 -30q-27 0 -50.5 10t-41 27.5t-27.5 41t-10 50.5v284q0 27 10 50.5t27.5 41t41 27.5t50.5 10q14 0 37 -7.5t50 -20.5v28h43v-564z
M169 42q36 0 61.5 25.5t25.5 61.5v284q0 36 -25.5 61.5t-61.5 25.5t-61.5 -25.5t-25.5 -61.5v-284q0 -36 25.5 -61.5t61.5 -25.5z" />
    <glyph glyph-name="h" unicode="h" 
d="M82 510q6 3 12.5 8.5t16.5 11t24 9.5t34 4q27 0 50.5 -10t41.5 -27.5t28 -40.5t10 -50v-415h-43v415q0 36 -25.5 61.5t-61.5 25.5t-61.5 -25.5t-25.5 -61.5v-415h-42v776h42v-225v-41z" />
    <glyph glyph-name="i" unicode="i" horiz-adv-x="125" 
d="M45 543h42v-543h-42v543zM87 734h-42v42h42v-42z" />
    <glyph glyph-name="j" unicode="j" horiz-adv-x="166" 
d="M70 776h41v-42h-41v42zM112 -20q0 -38 -13 -72t-35.5 -60t-54.5 -42t-69 -19v42q27 4 51 17.5t41.5 33.5t27.5 45.5t10 54.5v563h42v-563z" />
    <glyph glyph-name="k" unicode="k" 
d="M299 0h-43l-174 266v-266h-42v776h42v-337v-124l175 228h42l-192 -254z" />
    <glyph glyph-name="l" unicode="l" horiz-adv-x="126" 
d="M88 0h-43v776h43v-776z" />
    <glyph glyph-name="m" unicode="m" horiz-adv-x="514" 
d="M467 414q0 36 -25.5 61.5t-61.5 25.5q-37 0 -62.5 -25.5t-25.5 -61.5v-414h-41v414q0 36 -25.5 61.5t-62.5 25.5q-36 0 -61.5 -25.5t-25.5 -61.5v-414h-42v543h42v-29q58 29 87 29q28 0 55.5 -14t53.5 -40q24 26 52 40t56 14q27 0 50.5 -10t41 -27.5t27.5 -41t10 -50.5
v-414h-42v414z" />
    <glyph glyph-name="n" unicode="n" 
d="M169 543q27 0 50.5 -10t41.5 -27.5t28 -41t10 -50.5v-414h-43v414q0 36 -25.5 61.5t-61.5 25.5t-61.5 -25.5t-25.5 -61.5v-414h-42v543h42v-29q58 29 87 29z" />
    <glyph glyph-name="o" unicode="o" 
d="M169 542q27 0 50.5 -10t41.5 -27.5t28 -40.5t10 -50v-285q0 -27 -10 -50.5t-28 -41t-41.5 -27.5t-50.5 -10t-50.5 10t-41 27.5t-27.5 41t-10 50.5v285q0 27 10 50t27.5 40.5t41 27.5t50.5 10zM256 414q0 36 -25.5 61.5t-61.5 25.5t-61.5 -25.5t-25.5 -61.5v-285
q0 -37 25.5 -62.5t61.5 -25.5t61.5 25.5t25.5 62.5v285z" />
    <glyph glyph-name="p" unicode="p" 
d="M169 542q27 0 50.5 -10t41.5 -27.5t28 -40.5t10 -50v-285q0 -27 -10 -50.5t-28 -41t-41.5 -27.5t-50.5 -10q-16 0 -38 7t-49 19v-278h-42v807h42v-42q58 29 87 29zM256 414q0 36 -25.5 61.5t-61.5 25.5t-61.5 -25.5t-25.5 -61.5v-281q0 -41 25.5 -66.5t61.5 -25.5
t61.5 25.5t25.5 62.5v285z" />
    <glyph glyph-name="q" unicode="q" 
d="M169 542q29 0 87 -29v42h43v-807h-43v278q-27 -12 -49 -19t-38 -7q-27 0 -50.5 10t-41 27.5t-27.5 41t-10 50.5v285q0 27 10 50t27.5 40.5t41 27.5t50.5 10zM82 129q0 -37 25.5 -62.5t61.5 -25.5t61.5 25.5t25.5 66.5v281q0 36 -25.5 61.5t-61.5 25.5t-61.5 -25.5
t-25.5 -61.5v-285z" />
    <glyph glyph-name="r" unicode="r" 
d="M82 1h-42v546h42v-33q28 15 50 22t37 7q27 0 50.5 -10t41.5 -27.5t28 -40.5t10 -50v-86h-43v86q0 36 -25.5 61.5t-61.5 25.5t-61.5 -25.5t-25.5 -61.5v-414z" />
    <glyph glyph-name="s" unicode="s" 
d="M81 391q0 -38 26 -64t63 -26q27 0 50.5 -10t41 -27.5t27.5 -41t10 -50.5v-43q0 -27 -10 -50.5t-28 -41t-41.5 -27.5t-50.5 -10q-24 0 -45 8.5t-38 22.5t-28.5 33.5t-15.5 42.5h41q10 -26 33.5 -46t52.5 -20q36 0 61.5 25.5t25.5 62.5v44q0 38 -26 64t-63 26q-27 0 -50 10
t-40 27.5t-27 41t-10 50.5v22q0 27 10 50t27.5 40.5t41 27.5t50.5 10q24 0 45.5 -8.5t38 -22.5t28 -33.5t15.5 -41.5h-42q-8 27 -32 46t-53 19q-37 0 -62.5 -25.5t-25.5 -61.5v-23z" />
    <glyph glyph-name="t" unicode="t" horiz-adv-x="313" 
d="M262 0q-26 1 -48 11t-39 27t-27 39.5t-11 48.5v349h-95v41h95v260h42v-260h95v-41h-95v-346q0 -37 25 -62.5t61 -25.5v-41h-3zM265 41h1h-1z" />
    <glyph glyph-name="u" unicode="u" 
d="M169 -1q-27 0 -50.5 10t-41 27.5t-27.5 41t-10 50.5v414h42v-414q0 -37 25.5 -62.5t61.5 -25.5t61.5 25.5t25.5 62.5v414h43v-414q0 -27 -10 -50.5t-28 -41t-41.5 -27.5t-50.5 -10z" />
    <glyph glyph-name="v" unicode="v" 
d="M253 543h41q-14 -74 -27 -141t-26 -132t-26.5 -131.5t-26.5 -139.5h-48q-12 73 -24 140t-23.5 133t-23.5 132.5t-25 138.5h39l83 -451z" />
    <glyph glyph-name="w" unicode="w" horiz-adv-x="514" 
d="M465 561h40q-14 -74 -27 -143t-26 -137.5t-26.5 -138t-26.5 -142.5h-47l-81 472l-87 -472h-48l-97 561h40l82 -474l87 474h47l83 -466z" />
    <glyph glyph-name="x" unicode="x" 
d="M290 561l-101 -280q23 -66 49 -140t50 -141h-37l-82 227l-81 -227h-39l100 281l-100 280h39l81 -228l82 228h39z" />
    <glyph glyph-name="y" unicode="y" 
d="M257 543h42v-574q0 -40 -15.5 -75.5t-41.5 -61.5t-61.5 -41.5t-75.5 -15.5h-65v41h65q31 0 58.5 12t48.5 33t33 48.5t12 59.5v57q-26 -12 -49 -19t-39 -7q-27 0 -50.5 10t-41 27.5t-27.5 41t-10 50.5v414h42v-414q0 -37 25.5 -62.5t61.5 -25.5q37 0 62.5 25.5t25.5 62.5
v414z" />
    <glyph glyph-name="z" unicode="z" 
d="M39 542h259v-58l-230 -444h231v-41h-259v58l229 443h-230v42z" />
    <glyph glyph-name="zero" unicode="0" horiz-adv-x="321" 
d="M167 0q-25 0 -48 10.5t-40.5 28t-28 40.5t-10.5 48v525q0 25 10.5 48t28 39.5t40.5 26.5t48 10q27 0 51 -10t42 -26.5t29 -39.5t11 -48v-525q0 -25 -11 -48t-29 -40.5t-42 -28t-51 -10.5zM82 127q0 -38 23.5 -61.5t61.5 -23.5q43 0 66 23.5t23 61.5v525q0 36 -23 58.5
t-66 22.5q-38 0 -61.5 -22.5t-23.5 -58.5v-525zM147 453q0 9 6 15t14 6q9 0 15 -6t6 -15q0 -8 -6 -14t-15 -6q-8 0 -14 6t-6 14z" />
    <glyph glyph-name="one" unicode="1" horiz-adv-x="126" 
d="M88 0h-43v776h43v-776z" />
    <glyph glyph-name="two" unicode="2" 
d="M299 543l-228 -501h228v-42h-259v61l216 475v107q0 44 -23.5 67.5t-58.5 23.5q-17 0 -33.5 -6t-29.5 -17.5t-21 -28.5t-8 -39v-81h-42v81q0 28 10.5 52t28.5 42t42.5 28.5t52.5 10.5q27 0 50 -10.5t39.5 -28.5t26 -42t9.5 -52v-100z" />
    <glyph glyph-name="three" unicode="3" 
d="M196 478q28 7 44.5 28t16.5 51v84q0 43 -24 67.5t-59 24.5q-30 0 -56.5 -18t-34.5 -52h-42q4 24 15.5 44.5t29 35.5t40 23.5t48.5 8.5q27 0 50 -10.5t39.5 -28.5t26 -42.5t9.5 -52.5v-84q0 -23 -14.5 -51.5t-38.5 -51.5q24 -25 38.5 -54.5t14.5 -58.5v-216
q0 -25 -9.5 -47.5t-26 -40t-39.5 -27.5t-50 -10q-25 0 -47 8t-39.5 22.5t-29.5 33t-16 39.5h44q10 -26 34.5 -44t53.5 -18q17 0 32 6.5t26.5 18t18 26.5t6.5 33v216q0 37 -16.5 60.5t-44.5 28.5v48z" />
    <glyph glyph-name="four" unicode="4" horiz-adv-x="261" 
d="M223 273h-56v-273h-38v273h-98v34h-1l1 3l140 466h38l-140 -466h60v53h38v-53h56v-37z" />
    <glyph glyph-name="five" unicode="5" 
d="M299 776v-43h-216v-258h82q28 0 52.5 -10.5t42.5 -28.5t28.5 -42.5t10.5 -52.5v-217q0 -25 -10.5 -47.5t-28.5 -40t-42.5 -27.5t-52.5 -10q-22 0 -42.5 8t-37 22t-28 32.5t-15.5 39.5h44q6 -26 28 -43t51 -17q45 0 68 24t23 59v217q0 42 -23 67t-68 25h-125v343h259z" />
    <glyph glyph-name="six" unicode="6" horiz-adv-x="319" 
d="M40 641q0 28 9 52.5t25.5 42.5t39.5 28.5t51 10.5q51 0 87 -31.5t44 -80.5h-42q-8 33 -33.5 51.5t-55.5 18.5q-35 0 -59 -25t-24 -67v-197q23 11 45 18t38 7q27 0 51 -9.5t42 -26.5t28.5 -41t10.5 -52v-215q0 -25 -10.5 -47.5t-28.5 -40t-42 -27.5t-51 -10q-28 0 -51 10
t-39.5 27.5t-25.5 40t-9 47.5v516zM165 431q-35 0 -59 -23.5t-24 -67.5v-215q0 -35 24 -59t59 -24q18 0 34 6.5t29 17.5t20.5 26t7.5 33v215q0 22 -7.5 39t-20.5 28.5t-29 17.5t-34 6z" />
    <glyph glyph-name="seven" unicode="7" 
d="M47 0l216 732h-223v43h259v-64l-211 -711h-41z" />
    <glyph glyph-name="eight" unicode="8" 
d="M235 453q11 -5 22.5 -18t20.5 -29t15 -33.5t6 -31.5v-217q0 -24 -10.5 -46.5t-28.5 -40t-42.5 -27.5t-51.5 -10q-25 0 -47.5 10t-40 27.5t-28 40t-10.5 46.5v217q0 29 14.5 58.5t37.5 53.5q-23 24 -37.5 53t-14.5 51v86q0 28 10.5 52t28 42t40 28.5t47.5 10.5
q27 0 51.5 -10.5t42.5 -28.5t28.5 -42t10.5 -52v-86q0 -23 -12.5 -52t-51.5 -52zM166 733q-35 0 -59.5 -24t-24.5 -66v-86q0 -17 6.5 -32.5t18 -26.5t26.5 -17.5t33 -6.5q16 0 32.5 6.5t29 17.5t20.5 26.5t8 32.5v86q0 21 -8 37.5t-20.5 28.5t-29 18t-32.5 6zM166 42
q16 0 32.5 6t29 17t20.5 26t8 33v217q0 22 -8 39t-20.5 29t-29 18t-32.5 6q-35 0 -59.5 -24t-24.5 -68v-217q0 -36 24.5 -59t59.5 -23z" />
    <glyph glyph-name="nine" unicode="9" 
d="M297 134q0 -28 -9 -52.5t-25.5 -42.5t-39.5 -28.5t-50 -10.5q-51 0 -87.5 31.5t-44.5 79.5h42q8 -32 33.5 -51t56.5 -19q35 0 58.5 25.5t23.5 67.5v243q-23 -13 -44.5 -22.5t-37.5 -9.5q-28 0 -52 10.5t-42 29t-28.5 43t-10.5 53.5v170q0 25 10.5 47.5t28.5 39.5t42 27.5
t52 10.5q27 0 50 -10.5t39.5 -27.5t25.5 -39.5t9 -47.5v-517zM173 389q35 0 58.5 24t23.5 68v170q0 35 -23.5 58.5t-58.5 23.5q-18 0 -34.5 -6t-29 -17t-20.5 -26t-8 -33v-170q0 -22 8 -39t20.5 -29t29 -18t34.5 -6z" />
    <glyph glyph-name="period" unicode="." horiz-adv-x="188" 
d="M69 20q0 9 6.5 15.5t15.5 6.5q8 0 14 -6.5t6 -15.5q0 -8 -6 -14t-14 -6q-9 0 -15.5 6t-6.5 14z" />
    <glyph glyph-name="colon" unicode=":" horiz-adv-x="120" 
d="M43 20q0 9 6 15t14 6q10 0 16 -6t6 -15q0 -8 -6 -14t-16 -6q-8 0 -14 6t-6 14z" />
    <glyph glyph-name="semicolon" unicode=";" horiz-adv-x="125" 
d="M43 453q0 9 6 15t14 6q10 0 16 -6t6 -15q0 -8 -6 -14t-16 -6q-8 0 -14 6t-6 14zM43 20q0 9 6 15t14 6q10 0 16 -6t6 -15q0 -8 -6 -14t-16 -6q-8 0 -14 6t-6 14z" />
    <glyph glyph-name="exclam" unicode="!" horiz-adv-x="209" 
d="M84 20q0 9 5.5 15t14.5 6t15 -6t6 -15q0 -8 -6 -14t-15 -6t-14.5 6t-5.5 14zM125 172h-43v649h43v-649z" />
    <glyph glyph-name="slash" unicode="/" horiz-adv-x="334" 
d="M46 0l228 821h43q-29 -105 -58 -207.5t-57.5 -203.5t-57 -203t-57.5 -207h-41z" />
    <glyph glyph-name="equal" unicode="=" horiz-adv-x="332" 
d="M40 433v41h259v-41h-259zM40 261v41h259v-41h-259z" />
    <glyph glyph-name="question" unicode="?" horiz-adv-x="332" 
d="M156 260l104 282v102q0 22 -8 39t-20.5 28.5t-29 17.5t-33.5 6q-35 0 -58.5 -23.5t-23.5 -67.5v-82h-43v82q0 28 10 52.5t27.5 42.5t40 28.5t47.5 10.5q28 0 52 -10.5t42 -28.5t28.5 -42.5t10.5 -52.5v-102l-106 -282h-40zM148 21q0 9 6 15t15 6t15 -6t6 -15t-6 -15
t-15 -6t-15 6t-6 15z" />
    <glyph glyph-name="A" unicode="A" 
d="M224 163h-120q-4 -36 -10 -80t-11 -83h-39l98 776h44q25 -198 49.5 -388.5t49.5 -387.5h-41zM219 203l-55 432l-54 -432h109z" />
    <glyph glyph-name="Adieresis" unicode="&#xc4;" 
d="M246 877q0 9 5.5 14.5t13.5 5.5q20 0 20 -20q0 -8 -5.5 -13.5t-14.5 -5.5q-8 0 -13.5 5.5t-5.5 13.5zM42 877q0 20 19 20q20 0 20 -20q0 -8 -5.5 -13.5t-14.5 -5.5q-8 0 -13.5 5.5t-5.5 13.5zM220 142h-120q-4 -36 -10 -80t-11 -83h-39l98 776h44q25 -198 49.5 -388.5
t49.5 -387.5h-41zM215 182l-55 432l-54 -432h109z" />
    <glyph glyph-name="Udieresis" unicode="&#xdc;" 
d="M246 877q0 9 5.5 14.5t13.5 5.5q20 0 20 -20q0 -8 -5.5 -13.5t-14.5 -5.5q-8 0 -13.5 5.5t-5.5 13.5zM42 877q0 20 19 20q20 0 20 -20q0 -8 -5.5 -13.5t-14.5 -5.5q-8 0 -13.5 5.5t-5.5 13.5zM160 -21q-25 0 -47 9.5t-38.5 26t-26.5 38.5t-10 47v655h40v-654
q0 -34 23 -58t59 -24q37 0 60.5 24t23.5 58v654h39v-655q0 -25 -9.5 -47t-26.5 -38.5t-39.5 -26t-47.5 -9.5z" />
    <glyph glyph-name="Odieresis" unicode="&#xd6;" 
d="M246 877q0 9 5.5 14.5t13.5 5.5q20 0 20 -20q0 -8 -5.5 -13.5t-14.5 -5.5q-8 0 -13.5 5.5t-5.5 13.5zM42 877q0 20 19 20q20 0 20 -20q0 -8 -5.5 -13.5t-14.5 -5.5q-8 0 -13.5 5.5t-5.5 13.5zM160 -21q-25 0 -47.5 9.5t-39 26t-26 39t-9.5 47.5v533q0 25 9.5 47t26 38.5
t39 26t47.5 9.5t47.5 -9.5t39.5 -26t26.5 -38.5t9.5 -47v-533q0 -25 -9.5 -47.5t-26.5 -39t-39.5 -26t-47.5 -9.5zM78 101q0 -34 24 -58t58 -24q35 0 59 24t24 58v533q0 34 -24 58t-59 24q-34 0 -58 -24t-24 -58v-533z" />
    <glyph glyph-name="odieresis" unicode="&#xf6;" 
d="M256 716q0 9 6 15t14 6q9 0 15 -6t6 -15q0 -8 -6 -14t-15 -6q-8 0 -14 6t-6 14zM39 716q0 9 6 15t14 6q10 0 16 -6t6 -15q0 -8 -6 -14t-16 -6q-8 0 -14 6t-6 14zM159 520q27 0 50.5 -10t41.5 -27.5t28 -40.5t10 -50v-285q0 -27 -10 -50.5t-28 -41t-41.5 -27.5t-50.5 -10
t-50.5 10t-41 27.5t-27.5 41t-10 50.5v285q0 27 10 50t27.5 40.5t41 27.5t50.5 10zM246 392q0 36 -25.5 61.5t-61.5 25.5t-61.5 -25.5t-25.5 -61.5v-285q0 -37 25.5 -62.5t61.5 -25.5t61.5 25.5t25.5 62.5v285z" />
    <glyph glyph-name="adieresis" unicode="&#xe4;" 
d="M256 716q0 9 6 15t14 6q9 0 15 -6t6 -15q0 -8 -6 -14t-15 -6q-8 0 -14 6t-6 14zM39 716q0 9 6 15t14 6q10 0 16 -6t6 -15q0 -8 -6 -14t-16 -6q-8 0 -14 6t-6 14zM158 280q14 0 24 -2t19.5 -6t19.5 -9.5t25 -12.5v142q0 36 -25.5 61.5t-61.5 25.5q-37 0 -62.5 -25.5
t-25.5 -61.5h-41v4q1 25 11.5 48t27.5 40t40.5 27t49.5 10q25 0 48 -10t40.5 -27t28 -40t11.5 -48v-418h-41v26q-26 -12 -49 -19t-39 -7q-27 0 -50.5 10t-41 27.5t-27.5 41t-10 50.5v45q0 27 10 50t27.5 40.5t41 27.5t50.5 10zM245 152q0 36 -25.5 61.5t-61.5 25.5
t-61.5 -25.5t-25.5 -61.5v-45q0 -37 25.5 -62.5t61.5 -25.5t61.5 25.5t25.5 62.5v45z" />
    <glyph glyph-name="udieresis" unicode="&#xfc;" 
d="M256 716q0 9 6 15t14 6q9 0 15 -6t6 -15q0 -8 -6 -14t-15 -6q-8 0 -14 6t-6 14zM39 716q0 9 6 15t14 6q10 0 16 -6t6 -15q0 -8 -6 -14t-16 -6q-8 0 -14 6t-6 14zM159 -23q-27 0 -50.5 10t-41 27.5t-27.5 41t-10 50.5v414h42v-414q0 -37 25.5 -62.5t61.5 -25.5t61.5 25.5
t25.5 62.5v414h43v-414q0 -27 -10 -50.5t-28 -41t-41.5 -27.5t-50.5 -10z" />
    <glyph glyph-name="agrave" unicode="&#xe0;" 
d="M35 177q0 26 10.5 48.5t28 39.5t41 27t49.5 10h87v131q0 36 -25.5 61.5t-61.5 25.5q-37 0 -62.5 -25.5t-25.5 -61.5h-41v4q0 26 10.5 48.5t28 39.5t41 27t49.5 10t49 -10t40 -27t27.5 -40t11.5 -49v-436h-41v29q-56 -29 -87 -29q-27 0 -51 10t-41 27.5t-27 41t-10 50.5
v48zM229 0h22v-22zM156 260q-35 -4 -57.5 -29t-22.5 -58v-44q0 -36 25.5 -61.5t62.5 -25.5q36 0 61.5 25.5t25.5 61.5v131h-95z" />
    <glyph glyph-name="parenleft" unicode="(" horiz-adv-x="289" 
d="M89 778q0 24 8.5 45.5t22.5 38t33.5 28t42.5 15.5v-42q-26 -8 -45 -32t-19 -53v-736q0 -29 19 -52.5t45 -31.5v-43q-23 4 -42.5 15.5t-33.5 28.5t-22.5 38t-8.5 45v736z" />
    <glyph glyph-name="parenright" unicode=")" horiz-adv-x="256" 
d="M196 42q0 -24 -8.5 -45t-22.5 -38t-34 -28.5t-42 -15.5v43q27 8 46 31.5t19 52.5v736q0 29 -19 53t-46 32v42q22 -4 42 -15.5t34 -28t22.5 -38t8.5 -45.5v-736z" />
    <glyph glyph-name="plus" unicode="+" horiz-adv-x="301" 
d="M137 434h-94v41h94v87h43v-87h95v-41h-95v-87h-43v87z" />
    <glyph glyph-name="hyphen" unicode="-" horiz-adv-x="302" 
d="M43 434v41h232v-41h-232z" />
    <glyph glyph-name="endash" unicode="&#x2013;" horiz-adv-x="325" 
d="M46 434v42h258v-42h-258z" />
    <glyph glyph-name="dollar" unicode="$" 
d="M256 605v87q0 36 -25.5 61.5t-61.5 25.5t-62 -25.5t-26 -61.5v-116q54 -85 109 -173t109 -173v-101q0 -27 -10 -50.5t-28 -41t-41.5 -27.5t-50.5 -10t-50.5 10t-41 27.5t-27.5 41t-10 50.5v86h41v-86q0 -18 7 -34t19 -28t28 -19t34 -7q36 0 61.5 26t25.5 62v115
q-53 86 -108 173t-108 173v102q0 27 10 50.5t27.5 41t41 27.5t50.5 10t50.5 -10t41.5 -27.5t28 -41t10 -50.5v-87h-43zM189 -87h-42v995h42v-995zM189 -87h-42v995h42v-995z" />
    <glyph glyph-name="percent" unicode="%" horiz-adv-x="346" 
d="M46 0l228 821h43q-29 -105 -58 -207.5t-57.5 -203.5t-57 -203t-57.5 -207h-41zM281 20q0 9 6.5 15.5t15.5 6.5t15 -6.5t6 -15.5q0 -8 -6 -14t-15 -6t-15.5 6t-6.5 14zM39 798q0 10 6.5 16.5t16.5 6.5q8 0 14 -6.5t6 -16.5q0 -8 -6 -14t-14 -6q-10 0 -16.5 6t-6.5 14z" />
    <glyph glyph-name="ampersand" unicode="&#x26;" horiz-adv-x="833" 
 />
    <glyph glyph-name="ellipsis" unicode="&#x2026;" horiz-adv-x="415" 
d="M61 20q0 9 6.5 15.5t16.5 6.5q8 0 14 -6.5t6 -15.5q0 -8 -6 -14t-14 -6q-10 0 -16.5 6t-6.5 14zM203 20q0 9 6.5 15.5t15.5 6.5q8 0 14 -6.5t6 -15.5q0 -8 -6 -14t-14 -6q-9 0 -15.5 6t-6.5 14zM345 20q0 9 6.5 15.5t15.5 6.5q8 0 14 -6.5t6 -15.5q0 -8 -6 -14t-14 -6
q-9 0 -15.5 6t-6.5 14z" />
    <glyph glyph-name="bullet" unicode="&#x2022;" horiz-adv-x="200" 
d="M41 495q0 28 18 46.5t45 18.5t45.5 -18.5t18.5 -46.5q0 -27 -18.5 -44.5t-45.5 -17.5t-45 17.5t-18 44.5z" />
    <glyph glyph-name="Euro" unicode="&#x20ac;" 
d="M40 611q0 25 10.5 48t28 39.5t40.5 26.5t48 10q24 0 46 -8t39 -21.5t29 -32.5t17 -40h-44q-7 26 -29.5 42.5t-57.5 16.5q-38 0 -61 -22.5t-23 -58.5v-137h122l-11 -41h-111v-131h122l-11 -41h-111v-134q0 -38 23 -61.5t61 -23.5q37 0 59.5 17t27.5 46h44
q-5 -21 -17 -40.5t-29 -33.5t-39 -22.5t-46 -8.5q-25 0 -48 10.5t-40.5 28t-28 40.5t-10.5 48v134h-16l16 62v110h-16l16 62v116z" />
    <glyph glyph-name="comma" unicode="," horiz-adv-x="155" 
d="M84 41h42q-11 -37 -19.5 -65.5t-17.5 -61.5h-41z" />
    <glyph glyph-name="germandbls" unicode="&#xdf;" horiz-adv-x="334" 
d="M256 341q0 37 -20 60.5t-48 28.5v47q28 7 48 29t20 51v131q0 21 -8 37.5t-20.5 28.5t-29 18t-32.5 6q-35 0 -59.5 -24t-24.5 -66q0 -226 0.5 -452t0.5 -452h-42q-1 252 -1 450v454q0 28 10.5 52t28 42t40 28.5t47.5 10.5q27 0 51.5 -10.5t42.5 -28.5t28.5 -42t10.5 -52
v-131q0 -22 -15 -51t-38 -53q23 -24 38 -53.5t15 -58.5v-208q0 -28 -9 -50.5t-24.5 -39.5t-35.5 -28t-42 -14v45q33 8 50.5 33t17.5 54v208z" />
    <glyph glyph-name="fi" unicode="&#xfb01;" horiz-adv-x="355" 
d="M305 515h41v-515h-41v515zM88 474h-95v42h95v129q0 27 10 50.5t27.5 41.5t41 28t50.5 10q24 0 45.5 -8.5t38 -22.5t28 -34t15.5 -42h-42q-8 26 -32 45t-53 19q-36 0 -61.5 -25.5t-25.5 -61.5v-129h95v-42h-95v-474h-42v474z" />
    <glyph glyph-name="fl" unicode="&#xfb02;" horiz-adv-x="356" 
d="M346 0h-42v775h42v-775zM217 732q-36 0 -61.5 -25.5t-25.5 -61.5v-129h95v-42h-95v-474h-42v474h-95v42h95v129q0 27 10 50.5t27.5 41.5t41 28t50.5 10h8v-43h-8z" />
    <glyph glyph-name="notequal" unicode="&#x2260;" horiz-adv-x="332" 
d="M40 433v41h259v-41h-259zM40 261v41h259v-41h-259zM293 734q-27 -95 -52.5 -186t-50.5 -181.5t-50.5 -181.5t-51.5 -185h-41q26 95 51.5 186t50.5 181.5t50.5 181t51.5 185.5h42z" />
    <glyph glyph-name="dieresis" unicode="&#xa8;" horiz-adv-x="833" 
 />
    <glyph glyph-name="backslash" unicode="\" horiz-adv-x="414" 
d="M276 0l-230 821h42q58 -209 114.5 -411t114.5 -410h-41z" />
    <glyph glyph-name="asterisk" unicode="*" horiz-adv-x="833" 
 />
    <glyph glyph-name="divide" unicode="&#xf7;" horiz-adv-x="314" 
d="M43 434v41h232v-41h-232zM137 548q0 9 6 15t14 6q10 0 16 -6t6 -15q0 -8 -6 -14t-16 -6q-8 0 -14 6t-6 14zM137 303q0 9 6 15t14 6q10 0 16 -6t6 -15q0 -8 -6 -14t-16 -6q-8 0 -14 6t-6 14z" />
    <glyph glyph-name="quoteright" unicode="&#x2019;" horiz-adv-x="450" 
d="M238 778l7.5 24t5.5 19h42l-17 -59l4 16h-42zM228 693h28l17 58l-24 -85zM273 751l3 11zM355 778l7.5 24t5.5 19h42l-17 -59l4 16h-42zM345 693h28l17 58l-24 -85zM390 751l3 11z" />
    <glyph glyph-name="quotedblright" unicode="&#x201d;" horiz-adv-x="468" 
d="M238 778l7.5 24t5.5 19h42l-17 -59l4 16h-42zM228 693h28l17 58l-24 -85zM273 751l3 11zM355 778l7.5 24t5.5 19h42l-17 -59l4 16h-42zM345 693h28l17 58l-24 -85zM390 751l3 11z" />
    <glyph glyph-name="quotedblleft" unicode="&#x201c;" horiz-adv-x="833" 
 />
    <glyph glyph-name="trademark" unicode="&#x2122;" horiz-adv-x="819" 
d="M136 779h-108v42h258v-42h-109v-345h-41v345zM570 433l146 388h42v-388h-42v201l-42 8q-18 -51 -37.5 -104.5t-39.5 -104.5h-27zM427 434h-42v387h40l143 -388h-26l-74 207l-41 -7v-199zM568 433h2v-2z" />
    <glyph glyph-name="braceleft" unicode="{" horiz-adv-x="334" 
d="M152 778q0 24 8.5 45.5t22.5 38t33.5 28t42.5 15.5v-42q-26 -8 -45 -32t-19 -53v-736q0 -29 19 -52.5t45 -31.5v-43q-23 4 -42.5 15.5t-33.5 28.5t-22.5 38t-8.5 45v736zM192 540q-8 -40 -36.5 -68.5t-67.5 -36.5v42q22 7 38.5 23.5t22.5 39.5h43zM150 368
q-7 22 -23 38.5t-39 22.5v44q39 -8 67.5 -37t36.5 -68h-42z" />
    <glyph glyph-name="braceright" unicode="}" horiz-adv-x="369" 
d="M195 42q0 -24 -8.5 -45t-22.5 -38t-34 -28.5t-42 -15.5v43q26 8 45 31.5t19 52.5v736q0 29 -19 53t-45 32v42q22 -4 42 -15.5t34 -28t22.5 -38t8.5 -45.5v-736zM197 540q7 -22 23 -39t39 -23v-43q-39 8 -68 36.5t-37 68.5h43zM154 368q8 39 37 68t68 37v-43
q-22 -7 -38.5 -23t-22.5 -39h-44z" />
    <glyph glyph-name="less" unicode="&#x3c;" horiz-adv-x="282" 
d="M257 305v-37l-216 71v56l216 71v-39l-171 -59z" />
    <glyph glyph-name="greater" unicode="&#x3e;" horiz-adv-x="282" 
d="M208 347v38l-167 42v39l216 -71v-56l-216 -71v39z" />
    <glyph glyph-name="at" unicode="@" horiz-adv-x="484" 
 />
    </font>
</defs>
</svg>
